<?xml version="1.0" encoding="utf-8"?>
<!-- Generator: Adobe Illustrator 26.5.0, SVG Export Plug-In . SVG Version: 6.00 Build 0)  -->
<svg version="1.1" id="Layer_1" xmlns="http://www.w3.org/2000/svg" xmlns:xlink="http://www.w3.org/1999/xlink" x="0px" y="0px"
	 viewBox="0 0 1500 700" style="enable-background:new 0 0 1500 700;" xml:space="preserve">
<style type="text/css">
	.st0{fill:#FFFFFF;}
	.st1{font-family:'ArialMT';}
	.st2{font-size:12px;}
	.st3{fill-opacity:0;}
	.st4{fill:url(#SVGID_1_);}
	.st5{fill:#2A3F5F;}
	.st6{font-family:'Verdana';}
	.st7{font-size:14px;}
	.st8{fill:none;}
</style>
<rect class="st0" width="1500" height="700"/>
<g>
	
		<image style="overflow:visible;enable-background:new    ;" width="2262" height="1120" xlink:href="4D6133643E3A6BBE.png"  transform="matrix(0.5 0 0 0.5 80 60)">
	</image>
	<g transform="translate(1211,620)">
		<rect x="-213.8" y="-16.5" width="213.8" height="16.5"/>
		<text transform="matrix(1 0 0 1 -210.7734 -5.5)" class="st1 st2">© Carto © OpenStreetMap contributors</text>
	</g>
</g>
<g transform="translate(80,60)">
	<rect x="1154" class="st3" width="254.5" height="560"/>
	<g transform="translate(0,32)">
		
			<linearGradient id="SVGID_1_" gradientUnits="userSpaceOnUse" x1="349.7" y1="653.9131" x2="349.7" y2="654.9131" gradientTransform="matrix(30 0 0 -518 -9312 339245)">
			<stop  offset="0" style="stop-color:#0D0887"/>
			<stop  offset="0.1111" style="stop-color:#46039F"/>
			<stop  offset="0.2222" style="stop-color:#7201A8"/>
			<stop  offset="0.3333" style="stop-color:#9C179E"/>
			<stop  offset="0.4444" style="stop-color:#BD3786"/>
			<stop  offset="0.5556" style="stop-color:#D8576B"/>
			<stop  offset="0.6667" style="stop-color:#ED7953"/>
			<stop  offset="0.7778" style="stop-color:#FB9F3A"/>
			<stop  offset="0.8889" style="stop-color:#FDCA26"/>
			<stop  offset="1" style="stop-color:#F0F921"/>
		</linearGradient>
		<rect x="1164" class="st4" width="30" height="518"/>
	</g>
	<g transform="translate(0,32)">
	</g>
	<g transform="translate(0,-60)">
		<g>
			<text transform="matrix(1 0 0 1 1196.9 614.2)" class="st5 st6 st2">0</text>
		</g>
		<g>
			<text transform="matrix(1 0 0 1 1196.9 518.43)" class="st5 st6 st2">0.1</text>
		</g>
		<g>
			<text transform="matrix(1 0 0 1 1196.9 422.66)" class="st5 st6 st2">0.2</text>
		</g>
		<g>
			<text transform="matrix(1 0 0 1 1196.9 326.89)" class="st5 st6 st2">0.3</text>
		</g>
		<g>
			<text transform="matrix(1 0 0 1 1196.9 231.12)" class="st5 st6 st2">0.4</text>
		</g>
		<g>
			<text transform="matrix(1 0 0 1 1196.9 135.35)" class="st5 st6 st2">0.5</text>
		</g>
	</g>
	<g transform="translate(-80,-60)">
		<g transform="">
			<text transform="matrix(1 0 0 1 1243.62 83.5)" class="st5 st6 st7">Percentage Linguistically Isolated</text>
		</g>
	</g>
	<rect x="1164" y="32" class="st8" width="30" height="518"/>
</g>
</svg>
