<?xml version="1.0" encoding="utf-8"?>
<!-- Generator: Adobe Illustrator 26.5.0, SVG Export Plug-In . SVG Version: 6.00 Build 0)  -->
<svg version="1.1" id="Layer_1" xmlns="http://www.w3.org/2000/svg" xmlns:xlink="http://www.w3.org/1999/xlink" x="0px" y="0px"
	 viewBox="0 0 1501.4 1589.5" style="enable-background:new 0 0 1501.4 1589.5;" xml:space="preserve">
<style type="text/css">
	.st0{fill:#FFFFFF;}
	.st1{clip-path:url(#SVGID_00000042010823374186092230000002907435640441766289_);}
	.st2{opacity:0.7;fill:#00B2CA;enable-background:new    ;}
	.st3{fill-opacity:0;}
	.st4{opacity:0.7;fill:#B55AD6;enable-background:new    ;}
	.st5{opacity:0.7;fill:#FFA15A;enable-background:new    ;}
	.st6{fill:#808BA4;}
	.st7{fill:#00B1C9;enable-background:new    ;}
	.st8{fill:#9B61A7;enable-background:new    ;}
	.st9{fill:#F69055;enable-background:new    ;}
	.st10{clip-path:url(#SVGID_00000122720447964920551620000007795815333657893256_);}
	.st11{clip-path:url(#SVGID_00000054266080095622368520000009514089549601772448_);}
</style>
<rect y="-1756.8" class="st0" width="1500" height="700"/>
<g>
	
		<image style="overflow:visible;enable-background:new    ;" width="2630" height="1040" xlink:href="D6A7263341EF4A46.png"  transform="matrix(0.5 0 0 0.5 80 -1656.774)">
	</image>
	<g transform="translate(1395,620)">
		<rect x="-213.8" y="-1773.3" width="213.8" height="16.5"/>
		<text transform="matrix(1 0 0 1 -210.7734 -1762.274)" style="font-family:'ArialMT'; font-size:12px;">© Carto © OpenStreetMap contributors</text>
	</g>
</g>
<g>
	<g transform="translate(1421.3,100)" pointer-events="all">
		<rect x="0" y="-1756.8" shape-rendering="crispEdges" class="st0" width="67" height="86"/>
		<g>
			<defs>
				<rect id="SVGID_1_" x="0" y="-1756.8" width="67" height="86"/>
			</defs>
			<clipPath id="SVGID_00000034089166695227425020000016498413001487532429_">
				<use xlink:href="#SVGID_1_"  style="overflow:visible;"/>
			</clipPath>
			<g transform="" style="clip-path:url(#SVGID_00000034089166695227425020000016498413001487532429_);">
				<text transform="matrix(1 0 0 1 2 -1738.574)" style="fill:#2A3F5F; font-family:'Verdana'; font-size:14px;">color</text>
				<g transform="">
					<g transform="translate(0,32.7)">
						<text transform="matrix(1 0 0 1 40 -1752.094)" style="fill:#2A3F5F; font-family:'Verdana'; font-size:12px;">Sec</text>
						<g>
							<g>
								<g>
									<path class="st2" d="M26-1756.8c0,3.3-2.7,6-6,6s-6-2.7-6-6s2.7-6,6-6S26-1760.1,26-1756.8z"/>
								</g>
							</g>
						</g>
						<rect x="0" y="-1766.3" class="st3" width="61.6" height="19"/>
					</g>
				</g>
				<g transform="">
					<g transform="translate(0,51.7)">
						<text transform="matrix(1 0 0 1 40 -1752.094)" style="fill:#2A3F5F; font-family:'Verdana'; font-size:12px;">W</text>
						<g>
							<g>
								<g>
									<path class="st4" d="M26-1756.8c0,3.3-2.7,6-6,6s-6-2.7-6-6s2.7-6,6-6S26-1760.1,26-1756.8z"/>
								</g>
							</g>
						</g>
						<rect x="0" y="-1766.3" class="st3" width="61.6" height="19"/>
					</g>
				</g>
				<g transform="">
					<g transform="translate(0,70.7)">
						<text transform="matrix(1 0 0 1 40 -1752.094)" style="fill:#2A3F5F; font-family:'Verdana'; font-size:12px;">C</text>
						<g>
							<g>
								<g>
									<path class="st5" d="M26-1756.8c0,3.3-2.7,6-6,6s-6-2.7-6-6s2.7-6,6-6S26-1760.1,26-1756.8z"/>
								</g>
							</g>
						</g>
						<rect x="0" y="-1766.3" class="st3" width="61.6" height="19"/>
					</g>
				</g>
			</g>
		</g>
		<polygon class="st6" points="0,-1756.8 0,-1756.8 0,-1756.8 0,-1756.8 0,-1756.8 0,-1756.8 0,-1756.8 0,-1756.8 		"/>
	</g>
	<g>
		<text transform="matrix(1 0 0 1 75 -1706.774)" style="fill:#2A3F5F; font-family:'Verdana'; font-size:17px;">Recommended Sites</text>
	</g>
</g>
<image style="overflow:visible;enable-background:new    ;" width="2630" height="1040" xlink:href="D6A7263341EF4A45.png"  transform="matrix(0.5 0 0 0.5 92.5 -896.4153)">
</image>
<circle class="st7" cx="403.6" cy="-690.3" r="31.7"/>
<circle class="st8" cx="1445.6" cy="-686.2" r="13.5"/>
<circle class="st9" cx="1445.6" cy="-623.2" r="13.5"/>
<circle class="st7" cx="1445.6" cy="-569.2" r="13.5"/>
<circle class="st8" cx="434.2" cy="-700.2" r="7"/>
<circle class="st7" cx="531.9" cy="-821.8" r="15.7"/>
<circle class="st7" cx="667.8" cy="-275.4" r="32.1"/>
<rect x="462" y="-335.9" style="fill:none;" width="141.8" height="22.5"/>
<text transform="matrix(1 0 0 1 461.9517 -318.8419)" style="font-family:'MyriadPro-Regular'; font-size:24px;">Hub Capacity</text>
<rect x="635.7" y="-233.8" style="fill:none;" width="69.7" height="20"/>
<text transform="matrix(1 0 0 1 635.6905 -216.7779)" style="font-family:'MyriadPro-Regular'; font-size:24px;">25,000</text>
<g>
	<defs>
		<rect id="SVGID_00000122699070973412318200000006052818047198152122_" x="407.8" y="191.3" width="522" height="378"/>
	</defs>
	<clipPath id="SVGID_00000013170721688291378110000013133578422623124610_">
		<use xlink:href="#SVGID_00000122699070973412318200000006052818047198152122_"  style="overflow:visible;"/>
	</clipPath>
	<g style="clip-path:url(#SVGID_00000013170721688291378110000013133578422623124610_);">
		
			<image style="overflow:visible;enable-background:new    ;" width="2640" height="1040" xlink:href="D6A7263341EF4A4C.png"  transform="matrix(0.3635 0 0 0.3635 270.9128 191.331)">
		</image>
		<circle class="st7" cx="485.5" cy="360.2" r="8.5"/>
		<circle class="st8" cx="484.1" cy="354.8" r="3.7"/>
		<circle class="st7" cx="501.7" cy="358.2" r="9.2"/>
		<circle class="st8" cx="499" cy="353.8" r="5"/>
		<circle class="st8" cx="509.1" cy="343.7" r="4.4"/>
		<circle class="st8" cx="514.7" cy="359.6" r="4.6"/>
		<circle class="st8" cx="520.9" cy="334.1" r="5.1"/>
		<circle class="st8" cx="537.9" cy="326.2" r="4.9"/>
		<circle class="st8" cx="591.8" cy="244.2" r="4.4"/>
		<circle class="st8" cx="733.7" cy="316.7" r="7.2"/>
		<circle class="st9" cx="513.6" cy="373" r="6.5"/>
		<circle class="st9" cx="531.5" cy="377.2" r="6.1"/>
		<circle class="st8" cx="532.6" cy="381.7" r="4.5"/>
		<circle class="st9" cx="526.4" cy="326.7" r="5"/>
		<circle class="st9" cx="544.9" cy="302.9" r="5.8"/>
		<circle class="st9" cx="739.2" cy="313.3" r="6.4"/>
	</g>
</g>
<g>
	<defs>
		<rect id="SVGID_00000098181593011387705560000005283196153176345228_" x="407.8" y="742.4" width="522" height="378"/>
	</defs>
	<clipPath id="SVGID_00000045576468070103730660000017354757910084797066_">
		<use xlink:href="#SVGID_00000098181593011387705560000005283196153176345228_"  style="overflow:visible;"/>
	</clipPath>
	<g style="clip-path:url(#SVGID_00000045576468070103730660000017354757910084797066_);">
		
			<image style="overflow:visible;enable-background:new    ;" width="2630" height="1040" xlink:href="D6A7263341EF4A4F.png"  transform="matrix(0.3635 0 0 0.3635 272.7301 742.404)">
		</image>
		<circle class="st7" cx="498.9" cy="892.3" r="23"/>
		<circle class="st8" cx="521.2" cy="885" r="5.1"/>
		<circle class="st7" cx="592.2" cy="796.6" r="11.4"/>
	</g>
</g>
<image style="overflow:visible;enable-background:new    ;" width="2640" height="1040" xlink:href="D6A7263341EF4A4E.png"  transform="matrix(0.5 0 0 0.5 578.2687 49.331)">
</image>
</svg>
