<?xml version="1.0" encoding="utf-8"?>
<!-- Generator: Adobe Illustrator 26.5.0, SVG Export Plug-In . SVG Version: 6.00 Build 0)  -->
<svg version="1.1" id="Layer_1" xmlns="http://www.w3.org/2000/svg" xmlns:xlink="http://www.w3.org/1999/xlink" x="0px" y="0px"
	 viewBox="0 0 1500 620.3" style="enable-background:new 0 0 1500 620.3;" xml:space="preserve">
<style type="text/css">
	.st0{fill:#FFFFFF;}
	.st1{clip-path:url(#SVGID_00000015316980025739922810000006517729680605230783_);}
	.st2{opacity:0.7;fill:#FF9252;enable-background:new    ;}
	.st3{fill-opacity:0;}
	.st4{opacity:0.7;fill:#B55AD6;enable-background:new    ;}
	.st5{opacity:0.7;fill:#00B2CA;enable-background:new    ;}
	.st6{opacity:0.7;fill:#FFA15A;enable-background:new    ;}
	.st7{fill:#808BA4;}
	.st8{fill:#00B1C9;enable-background:new    ;}
	.st9{fill:#9B61A7;enable-background:new    ;}
	.st10{fill:#F69055;enable-background:new    ;}
</style>
<rect y="-756.1" class="st0" width="1500" height="700"/>
<g>
	
		<image style="overflow:visible;enable-background:new    ;" width="2640" height="1040" xlink:href="D6AF913FFBFD9E8A.png"  transform="matrix(0.5 0 0 0.5 80 -656.0887)">
	</image>
	<g transform="translate(1400,620)">
		<rect x="-213.8" y="-772.6" width="213.8" height="16.5"/>
		<text transform="matrix(1 0 0 1 -210.7734 -761.5887)" style="font-family:'ArialMT'; font-size:12px;">© Carto © OpenStreetMap contributors</text>
	</g>
</g>
<g>
	<g transform="translate(1426.4,100)" pointer-events="all">
		<rect x="0" y="-756.1" shape-rendering="crispEdges" class="st0" width="62" height="105"/>
		<g>
			<defs>
				<rect id="SVGID_1_" x="0" y="-756.1" width="62" height="105"/>
			</defs>
			<clipPath id="SVGID_00000143619578998512678680000016333948811793150135_">
				<use xlink:href="#SVGID_1_"  style="overflow:visible;"/>
			</clipPath>
			<g transform="" style="clip-path:url(#SVGID_00000143619578998512678680000016333948811793150135_);">
				<text transform="matrix(1 0 0 1 2 -737.8887)" style="fill:#2A3F5F; font-family:'Verdana'; font-size:14px;">color</text>
				<g transform="">
					<g transform="translate(0,32.7)">
						<text transform="matrix(1 0 0 1 40 -751.4087)" style="fill:#2A3F5F; font-family:'Verdana'; font-size:12px;">CC</text>
						<g>
							<g>
								<g>
									<path class="st2" d="M26-756.1c0,3.3-2.7,6-6,6s-6-2.7-6-6s2.7-6,6-6S26-759.4,26-756.1z"/>
								</g>
							</g>
						</g>
						<rect x="0" y="-765.6" class="st3" width="56.8" height="19"/>
					</g>
				</g>
				<g transform="">
					<g transform="translate(0,51.7)">
						<text transform="matrix(1 0 0 1 40 -751.4087)" style="fill:#2A3F5F; font-family:'Verdana'; font-size:12px;">W</text>
						<g>
							<g>
								<g>
									<path class="st4" d="M26-756.1c0,3.3-2.7,6-6,6s-6-2.7-6-6s2.7-6,6-6S26-759.4,26-756.1z"/>
								</g>
							</g>
						</g>
						<rect x="0" y="-765.6" class="st3" width="56.8" height="19"/>
					</g>
				</g>
				<g transform="">
					<g transform="translate(0,70.7)">
						<text transform="matrix(1 0 0 1 40 -751.4087)" style="fill:#2A3F5F; font-family:'Verdana'; font-size:12px;">Pri</text>
						<g>
							<g>
								<g>
									<path class="st5" d="M26-756.1c0,3.3-2.7,6-6,6s-6-2.7-6-6s2.7-6,6-6S26-759.4,26-756.1z"/>
								</g>
							</g>
						</g>
						<rect x="0" y="-765.6" class="st3" width="56.8" height="19"/>
					</g>
				</g>
				<g transform="">
					<g transform="translate(0,89.7)">
						<text transform="matrix(1 0 0 1 40 -751.4087)" style="fill:#2A3F5F; font-family:'Verdana'; font-size:12px;">C</text>
						<g>
							<g>
								<g>
									<path class="st6" d="M26-756.1c0,3.3-2.7,6-6,6s-6-2.7-6-6s2.7-6,6-6S26-759.4,26-756.1z"/>
								</g>
							</g>
						</g>
						<rect x="0" y="-765.6" class="st3" width="56.8" height="19"/>
					</g>
				</g>
			</g>
		</g>
		<polygon class="st7" points="0,-756.1 0,-756.1 0,-756.1 0,-756.1 0,-756.1 0,-756.1 0,-756.1 0,-756.1 		"/>
	</g>
	<g>
		<text transform="matrix(1 0 0 1 75 -706.0887)" style="fill:#2A3F5F; font-family:'Verdana'; font-size:17px;">Recommended Sites</text>
	</g>
</g>
<image style="overflow:visible;enable-background:new    ;" width="2640" height="1040" xlink:href="D6AF913FFBFD9E8E.png"  transform="matrix(0.5 0 0 0.5 109.1281 39.0464)">
</image>
<circle class="st8" cx="404.4" cy="271.3" r="11.6"/>
<circle class="st9" cx="402.5" cy="263.9" r="5.1"/>
<circle class="st8" cx="426.7" cy="268.6" r="12.7"/>
<circle class="st9" cx="422.9" cy="262.6" r="6.9"/>
<circle class="st9" cx="436.8" cy="248.6" r="6.1"/>
<circle class="st9" cx="444.5" cy="270.5" r="6.4"/>
<circle class="st9" cx="453.1" cy="235.5" r="7"/>
<circle class="st9" cx="476.4" cy="224.6" r="6.8"/>
<circle class="st9" cx="550.5" cy="111.8" r="6"/>
<circle class="st9" cx="745.8" cy="211.6" r="9.9"/>
<circle class="st10" cx="443" cy="289" r="8.9"/>
<circle class="st10" cx="467.6" cy="294.7" r="8.4"/>
<circle class="st9" cx="469.1" cy="300.9" r="6.2"/>
<circle class="st10" cx="460.6" cy="225.2" r="6.9"/>
<circle class="st10" cx="486" cy="192.6" r="7.9"/>
<circle class="st10" cx="753.4" cy="206.9" r="8.9"/>
</svg>
