<?xml version="1.0" encoding="utf-8"?>
<!-- Generator: Adobe Illustrator 26.5.0, SVG Export Plug-In . SVG Version: 6.00 Build 0)  -->
<svg version="1.1" id="Layer_1" xmlns="http://www.w3.org/2000/svg" xmlns:xlink="http://www.w3.org/1999/xlink" x="0px" y="0px"
	 viewBox="0 0 1250 938.7" style="enable-background:new 0 0 1250 938.7;" xml:space="preserve">
<style type="text/css">
	.st0{fill:#FFFFFF;}
	.st1{clip-path:url(#SVGID_00000065756164820392307060000004878820958664620958_);}
	.st2{opacity:0.7;fill:#00B2CA;enable-background:new    ;}
	.st3{fill-opacity:0;}
	.st4{opacity:0.7;fill:#FF9252;enable-background:new    ;}
	.st5{opacity:0.7;fill:#B55AD6;enable-background:new    ;}
	.st6{opacity:0.7;fill:#AB63FA;enable-background:new    ;}
	.st7{fill:#808BA4;}
	.st8{fill:#00B1C9;enable-background:new    ;}
	.st9{fill:#9B61A7;enable-background:new    ;}
	.st10{fill:#F69055;enable-background:new    ;}
</style>
<rect y="-1083" class="st0" width="1250" height="1000"/>
<g>
	
		<image style="overflow:visible;enable-background:new    ;" width="2080" height="1640" xlink:href="D6B7FC4CB60BF2D5.png"  transform="matrix(0.5 0 0 0.5 80 -982.9749)">
	</image>
	<g transform="translate(1120,920)">
		<rect x="-213.8" y="-1099.5" width="213.8" height="16.5"/>
		<text transform="matrix(1 0 0 1 -210.7734 -1088.4749)" style="font-family:'ArialMT'; font-size:12px;">© Carto © OpenStreetMap contributors</text>
	</g>
</g>
<g>
	<g transform="translate(1140.8,100)" pointer-events="all">
		<rect x="0" y="-1083" shape-rendering="crispEdges" class="st0" width="97" height="105"/>
		<g>
			<defs>
				<rect id="SVGID_1_" x="0" y="-1083" width="97" height="105"/>
			</defs>
			<clipPath id="SVGID_00000163787936114157003400000003352335504020937139_">
				<use xlink:href="#SVGID_1_"  style="overflow:visible;"/>
			</clipPath>
			<g transform="" style="clip-path:url(#SVGID_00000163787936114157003400000003352335504020937139_);">
				<text transform="matrix(1 0 0 1 2 -1064.7749)" style="fill:#2A3F5F; font-family:'Verdana'; font-size:14px;">color</text>
				<g transform="">
					<g transform="translate(0,32.7)">
						<text transform="matrix(1 0 0 1 40 -1078.2949)" style="fill:#2A3F5F; font-family:'Verdana'; font-size:12px;">SCHOOL</text>
						<g>
							<g>
								<g>
									<path class="st2" d="M26-1083c0,3.3-2.7,6-6,6s-6-2.7-6-6s2.7-6,6-6S26-1086.3,26-1083z"/>
								</g>
							</g>
						</g>
						<rect x="0" y="-1092.5" class="st3" width="91.2" height="19"/>
					</g>
				</g>
				<g transform="">
					<g transform="translate(0,51.7)">
						<text transform="matrix(1 0 0 1 40 -1078.2949)" style="fill:#2A3F5F; font-family:'Verdana'; font-size:12px;">CC</text>
						<g>
							<g>
								<g>
									<path class="st4" d="M26-1083c0,3.3-2.7,6-6,6s-6-2.7-6-6s2.7-6,6-6S26-1086.3,26-1083z"/>
								</g>
							</g>
						</g>
						<rect x="0" y="-1092.5" class="st3" width="91.2" height="19"/>
					</g>
				</g>
				<g transform="">
					<g transform="translate(0,70.7)">
						<text transform="matrix(1 0 0 1 40 -1078.2949)" style="fill:#2A3F5F; font-family:'Verdana'; font-size:12px;">W</text>
						<g>
							<g>
								<g>
									<path class="st5" d="M26-1083c0,3.3-2.7,6-6,6s-6-2.7-6-6s2.7-6,6-6S26-1086.3,26-1083z"/>
								</g>
							</g>
						</g>
						<rect x="0" y="-1092.5" class="st3" width="91.2" height="19"/>
					</g>
				</g>
				<g transform="">
					<g transform="translate(0,89.7)">
						<text transform="matrix(1 0 0 1 40 -1078.2949)" style="fill:#2A3F5F; font-family:'Verdana'; font-size:12px;">C</text>
						<g>
							<g>
								<g>
									<path class="st6" d="M26-1083c0,3.3-2.7,6-6,6s-6-2.7-6-6s2.7-6,6-6S26-1086.3,26-1083z"/>
								</g>
							</g>
						</g>
						<rect x="0" y="-1092.5" class="st3" width="91.2" height="19"/>
					</g>
				</g>
			</g>
		</g>
		<polygon class="st7" points="0,-1083 0,-1083 0,-1083 0,-1083 0,-1083 0,-1083 0,-1083 0,-1083 		"/>
	</g>
	<g>
		<text transform="matrix(1 0 0 1 62.5 -1032.9749)" style="fill:#2A3F5F; font-family:'Verdana'; font-size:17px;">Local Model Recommended Sites</text>
	</g>
</g>
<g>
	<g>
		<defs>
			<rect id="SVGID_00000166668347953214418460000008698996118054520750_" x="23.1" y="485.4" width="540" height="414"/>
		</defs>
		<clipPath id="SVGID_00000138533722400892417970000001089890327408788877_">
			<use xlink:href="#SVGID_00000166668347953214418460000008698996118054520750_"  style="overflow:visible;"/>
		</clipPath>
		
			<g transform="matrix(1 0 0 1 0 0)" style="clip-path:url(#SVGID_00000138533722400892417970000001089890327408788877_);enable-background:new    ;">
			
				<image style="overflow:visible;" width="2140" height="1640" xlink:href="D6B7FC4CB60BF2D7.png"  transform="matrix(0.3808 0 0 0.3808 -89.363 438.1088)">
			</image>
		</g>
	</g>
	<circle class="st8" cx="311.5" cy="579" r="25.5"/>
	<circle class="st9" cx="315.3" cy="618" r="7"/>
	<circle class="st10" cx="221.5" cy="884.5" r="7.6"/>
</g>
<g>
	<g>
		<defs>
			<rect id="SVGID_00000115506298097436292940000002712498885006107030_" x="636.2" y="485.4" width="540" height="414"/>
		</defs>
		<clipPath id="SVGID_00000031201679776434793260000002745276521710285443_">
			<use xlink:href="#SVGID_00000115506298097436292940000002712498885006107030_"  style="overflow:visible;"/>
		</clipPath>
		
			<g transform="matrix(1 0 0 1 0 0)" style="clip-path:url(#SVGID_00000031201679776434793260000002745276521710285443_);enable-background:new    ;">
			
				<image style="overflow:visible;" width="2080" height="1640" xlink:href="D6B7FC4CB60BF2D2.png"  transform="matrix(0.3808 0 0 0.3808 535.2086 438.1088)">
			</image>
		</g>
	</g>
	<circle class="st10" cx="923.1" cy="627.7" r="8.4"/>
	<circle class="st10" cx="987.3" cy="612.1" r="6.3"/>
	<circle class="st10" cx="845.5" cy="748.2" r="3.9"/>
	<circle class="st9" cx="858" cy="501.3" r="4.2"/>
	<circle class="st8" cx="1119.4" cy="693.3" r="7"/>
</g>
</svg>
